<svg width="518" height="240" viewBox="0 0 518 240" fill="none" xmlns="http://www.w3.org/2000/svg">
<path d="M339.541 197.441V175.743L439.046 119.784L340.111 69.25V48.9793L461 112.646V126.351L339.541 197.441Z" fill="#305734"/>
<path d="M250.015 146.336C250.015 139.293 250.965 133.393 252.866 128.635C254.767 123.876 257.238 119.689 260.279 116.072C263.32 112.456 266.456 109.03 269.688 105.794C273.109 102.559 276.34 99.2278 279.382 95.8018C282.423 92.3757 284.894 88.3787 286.795 83.8106C288.695 79.0523 289.646 73.4374 289.646 66.966C289.646 62.5883 288.885 58.6864 287.365 55.2604C285.844 51.8343 283.658 48.8841 280.807 46.4098C277.956 43.7451 274.535 41.7465 270.543 40.4142C266.741 39.0819 262.56 38.4157 257.998 38.4157C250.775 38.4157 244.407 39.4625 238.895 41.5562C233.573 43.6499 228.726 46.9808 224.354 51.5488C222.454 54.0232 221.218 55.9265 220.648 57.2589C220.268 58.5912 220.173 60.0187 220.363 61.5414L219.222 63.2544L216.941 61.5414L203.826 50.6923C208.008 44.4112 212.474 39.0818 217.226 34.7041C222.168 30.3264 227.966 26.9956 234.618 24.7115C241.461 22.2372 249.539 21 258.853 21C268.927 21 277.766 22.8082 285.369 26.4246C292.972 30.0409 298.864 35.18 303.046 41.8417C307.228 48.5034 309.319 56.4024 309.319 65.5385C309.319 73.1519 308.273 79.7184 306.182 85.2382C304.282 90.5675 301.811 95.2308 298.769 99.2278C295.728 103.035 292.497 106.556 289.075 109.791C285.654 113.027 282.423 116.358 279.382 119.784C276.34 123.02 273.774 126.731 271.683 130.919C269.783 135.106 268.832 140.245 268.832 146.336V158.041H250.015V146.336ZM259.994 214C255.432 214 251.535 212.382 248.304 209.146C245.073 205.911 243.457 202.104 243.457 197.726C243.457 193.349 245.073 189.542 248.304 186.306C251.535 183.071 255.432 181.453 259.994 181.453C264.365 181.453 268.167 183.071 271.398 186.306C274.63 189.542 276.245 193.349 276.245 197.726C276.245 202.104 274.63 205.911 271.398 209.146C268.167 212.382 264.365 214 259.994 214Z" fill="#305734"/>
<path d="M174.459 197.441L53 126.351V112.646L173.604 48.9793V69.25L74.6688 119.784L174.459 175.743V197.441Z" fill="#305734"/>
</svg>
